# Blender v2.79 (sub 0) OBJ File: 'AMLORDjoin.blend'
# www.blender.org
mtllib AMLORDjoin.mtl
o Cube.016_Cube.009
v -0.003790 4.799280 2.369142
v -0.003790 4.797136 1.927249
v -0.003790 4.889796 2.368703
v -0.003790 4.887652 1.926810
v 0.153340 4.799280 2.369142
v 0.153340 4.797136 1.927249
v 0.153340 4.889796 2.368703
v 0.153340 4.887652 1.926810
v -0.637384 1.448923 -0.094243
v -0.637384 2.380476 -0.094243
v -0.637384 1.448923 -1.000418
v -0.637384 2.380476 -1.000418
v 0.786935 1.448923 -0.094243
v 0.786935 2.380476 -0.094243
v 0.786935 1.448923 -1.000418
v 0.786935 2.380476 -1.000418
v 1.206434 5.533086 -1.197150
v 1.206434 5.533086 1.215717
v -1.206434 5.533086 1.215717
v -1.206433 5.533086 -1.197151
v 1.206434 7.945954 -1.197150
v 1.206433 7.945953 1.215718
v -1.206434 7.945953 1.215716
v -1.206434 7.945954 -1.197151
v 0.993077 5.270948 -0.983793
v 0.993077 5.270947 1.002360
v -0.993077 5.270947 1.002360
v -0.993076 5.270948 -0.983794
v 0.993077 2.395179 -0.983793
v 0.993076 2.395178 1.002360
v -0.993077 2.395178 1.002360
v -0.993076 2.395179 -0.983793
v 0.583035 5.267951 -0.573751
v 0.583035 5.267950 0.592318
v -0.583035 5.267950 0.592318
v -0.583035 5.267951 -0.573752
v 0.583035 5.537842 -0.573751
v 0.583034 5.537842 0.592318
v -0.583035 5.537842 0.592318
v -0.583035 5.537842 -0.573752
v -0.637384 1.448923 1.002852
v -0.637384 2.380476 1.002852
v -0.637384 1.448923 0.096677
v -0.637384 2.380476 0.096677
v 0.786935 1.448923 1.002852
v 0.786935 2.380476 1.002852
v 0.786935 1.448923 0.096677
v 0.786935 2.380476 0.096677
v -0.637384 0.303881 -0.094242
v -0.637384 1.433631 -0.094242
v -0.637384 0.303881 -1.000418
v -0.637384 1.433632 -1.000418
v 0.786935 0.303881 -0.094242
v 0.786935 1.433631 -0.094242
v 0.786935 0.303881 -1.000418
v 0.786935 1.433632 -1.000418
v -0.637384 0.303881 1.002852
v -0.637384 1.433632 1.002852
v -0.637384 0.303881 0.096677
v -0.637384 1.433632 0.096677
v 0.786935 0.303881 1.002852
v 0.786935 1.433632 1.002852
v 0.786935 0.303881 0.096677
v 0.786935 1.433632 0.096677
v -0.366448 5.173185 2.251468
v -0.366448 5.167263 1.030687
v -0.366448 4.509514 2.254689
v -0.366448 4.503591 1.033907
v 0.515999 5.173185 2.251468
v 0.515999 5.167263 1.030687
v 0.515999 4.509514 2.254689
v 0.515999 4.503591 1.033907
v -0.366449 5.177286 3.096579
v -0.366449 5.173317 2.278496
v -0.366449 4.513614 3.099799
v -0.366449 4.509645 2.281716
v 0.515999 5.177286 3.096579
v 0.515999 5.173317 2.278496
v 0.515999 4.513614 3.099799
v 0.515999 4.509645 2.281716
v -0.366448 5.179624 3.578378
v -0.366448 5.177429 3.126012
v -0.366448 4.515952 3.581598
v -0.366448 4.513757 3.129232
v 0.515999 5.179624 3.578378
v 0.515999 5.177429 3.126012
v 0.515999 4.515952 3.581598
v 0.515999 4.513757 3.129232
v -0.366448 4.497918 -2.231213
v -0.366448 4.504087 -1.010433
v -0.366448 5.161589 -2.234567
v -0.366448 5.167758 -1.013788
v 0.515999 4.497918 -2.231213
v 0.515999 4.504087 -1.010433
v 0.515999 5.161589 -2.234567
v 0.515999 5.167758 -1.013788
v -0.366448 4.491212 -3.558121
v -0.366448 4.493498 -3.105756
v -0.366448 5.154883 -3.561475
v -0.366448 5.157169 -3.109110
v 0.515999 4.491212 -3.558121
v 0.515999 4.493498 -3.105756
v 0.515999 5.154883 -3.561475
v 0.515999 5.157169 -3.109110
v -0.366448 4.493647 -3.076324
v -0.366448 4.497781 -2.258241
v -0.366448 5.157318 -3.079678
v -0.366448 5.161452 -2.261595
v 0.515999 4.493647 -3.076324
v 0.515999 4.497781 -2.258241
v 0.515999 5.157318 -3.079678
v 0.515999 5.161452 -2.261595
v -0.617148 0.016230 1.002852
v -0.617148 0.327100 1.002852
v -0.617148 0.016230 0.096677
v -0.617148 0.327100 0.096677
v 0.989373 0.016230 1.002852
v 0.989373 0.327100 1.002852
v 0.989373 0.016230 0.096677
v 0.989373 0.327100 0.096677
v -0.617148 0.016231 -0.094341
v -0.617148 0.327100 -0.094341
v -0.617148 0.016231 -1.000516
v -0.617148 0.327101 -1.000516
v 0.989373 0.016231 -0.094341
v 0.989373 0.327100 -0.094341
v 0.989373 0.016231 -1.000516
v 0.989373 0.327101 -1.000516
v -0.003790 4.799280 3.269741
v -0.003790 4.797135 2.827848
v -0.003790 4.889795 3.269302
v -0.003790 4.887651 2.827409
v 0.153340 4.799280 3.269741
v 0.153340 4.797135 2.827848
v 0.153340 4.889795 3.269302
v 0.153340 4.887651 2.827409
v -0.003790 4.799281 -2.875515
v -0.003790 4.797137 -3.317408
v -0.003790 4.889797 -2.875954
v -0.003790 4.887653 -3.317847
v 0.153340 4.799281 -2.875515
v 0.153340 4.797137 -3.317408
v 0.153340 4.889797 -2.875954
v 0.153340 4.887653 -3.317847
v -0.003790 4.799281 -1.930738
v -0.003790 4.797137 -2.372632
v -0.003790 4.889797 -1.931178
v -0.003790 4.887653 -2.373071
v 0.153340 4.799281 -1.930738
v 0.153340 4.797137 -2.372632
v 0.153340 4.889797 -1.931178
v 0.153340 4.887653 -2.373071
v -0.003790 2.584836 0.653329
v -0.003790 2.583724 0.424133
v -0.003790 2.205427 0.655170
v -0.003790 2.204315 0.425973
v 0.153340 2.584836 0.653329
v 0.153340 2.583724 0.424133
v 0.153340 2.205427 0.655170
v 0.153340 2.204315 0.425973
v -0.003790 2.584836 -0.424428
v -0.003790 2.583724 -0.653624
v -0.003790 2.205427 -0.422587
v -0.003790 2.204315 -0.651783
v 0.153340 2.584836 -0.424428
v 0.153340 2.583724 -0.653624
v 0.153340 2.205427 -0.422587
v 0.153340 2.204315 -0.651783
v -0.003790 1.623166 0.653329
v -0.003790 1.622054 0.424133
v -0.003790 1.243758 0.655170
v -0.003790 1.242646 0.425974
v 0.153340 1.623166 0.653329
v 0.153340 1.622054 0.424133
v 0.153340 1.243758 0.655170
v 0.153340 1.242646 0.425974
v -0.003790 1.623166 -0.424428
v -0.003790 1.622054 -0.653624
v -0.003790 1.243758 -0.422586
v -0.003790 1.242646 -0.651783
v 0.153340 1.623166 -0.424428
v 0.153340 1.622054 -0.653624
v 0.153340 1.243758 -0.422586
v 0.153340 1.242646 -0.651783
v -0.003790 4.799280 1.229948
v -0.003790 4.797136 0.788055
v -0.003790 4.889796 1.229509
v -0.003790 4.887652 0.787616
v 0.153340 4.799280 1.229948
v 0.153340 4.797136 0.788055
v 0.153340 4.889796 1.229509
v 0.153340 4.887652 0.787616
v -0.003790 4.799281 -0.769843
v -0.003790 4.797137 -1.211736
v -0.003790 4.889796 -0.770282
v -0.003790 4.887652 -1.212175
v 0.153340 4.799281 -0.769843
v 0.153340 4.797137 -1.211736
v 0.153340 4.889796 -0.770282
v 0.153340 4.887652 -1.212175
vn -1.0000 -0.0000 0.0000
vn 0.0000 1.0000 -0.0049
vn 1.0000 0.0000 0.0000
vn 0.0000 -1.0000 0.0049
vn 0.0000 0.0049 1.0000
vn 0.0000 -0.0049 -1.0000
vn 0.0000 0.0000 1.0000
vn 0.0000 -0.0000 -1.0000
vn 0.0000 1.0000 0.0000
vn 0.0000 -1.0000 -0.0000
vn 0.0000 -1.0000 0.0051
vn 0.0000 1.0000 -0.0051
vn 0.0000 0.0051 1.0000
vn 0.0000 -0.0051 -1.0000
usemtl Material
s off
f 1//1 3//1 4//1 2//1
f 3//2 7//2 8//2 4//2
f 7//3 5//3 6//3 8//3
f 5//4 1//4 2//4 6//4
f 3//5 1//5 5//5 7//5
f 8//6 6//6 2//6 4//6
f 9//3 11//3 12//3 10//3
f 11//7 15//7 16//7 12//7
f 15//1 13//1 14//1 16//1
f 13//8 9//8 10//8 14//8
f 11//9 9//9 13//9 15//9
f 16//10 14//10 10//10 12//10
f 17//9 20//9 19//9 18//9
f 21//10 22//10 23//10 24//10
f 17//1 18//1 22//1 21//1
f 18//8 19//8 23//8 22//8
f 19//3 20//3 24//3 23//3
f 21//7 24//7 20//7 17//7
usemtl Material.001
f 25//9 28//9 27//9 26//9
f 29//10 30//10 31//10 32//10
f 25//3 26//3 30//3 29//3
f 26//7 27//7 31//7 30//7
f 27//1 28//1 32//1 31//1
f 29//8 32//8 28//8 25//8
usemtl Material.002
f 33//9 36//9 35//9 34//9
f 37//10 38//10 39//10 40//10
f 33//1 34//1 38//1 37//1
f 34//8 35//8 39//8 38//8
f 35//3 36//3 40//3 39//3
f 37//7 40//7 36//7 33//7
f 41//3 43//3 44//3 42//3
f 43//7 47//7 48//7 44//7
f 47//1 45//1 46//1 48//1
f 45//8 41//8 42//8 46//8
f 43//9 41//9 45//9 47//9
f 48//10 46//10 42//10 44//10
f 49//3 51//3 52//3 50//3
f 51//7 55//7 56//7 52//7
f 55//1 53//1 54//1 56//1
f 53//8 49//8 50//8 54//8
f 51//9 49//9 53//9 55//9
f 56//10 54//10 50//10 52//10
f 57//3 59//3 60//3 58//3
f 59//7 63//7 64//7 60//7
f 63//1 61//1 62//1 64//1
f 61//8 57//8 58//8 62//8
f 59//9 57//9 61//9 63//9
f 64//10 62//10 58//10 60//10
f 65//3 67//3 68//3 66//3
f 67//2 71//2 72//2 68//2
f 71//1 69//1 70//1 72//1
f 69//4 65//4 66//4 70//4
f 67//6 65//6 69//6 71//6
f 72//5 70//5 66//5 68//5
f 73//3 75//3 76//3 74//3
f 75//2 79//2 80//2 76//2
f 79//1 77//1 78//1 80//1
f 77//4 73//4 74//4 78//4
f 75//6 73//6 77//6 79//6
f 80//5 78//5 74//5 76//5
f 81//3 83//3 84//3 82//3
f 83//2 87//2 88//2 84//2
f 87//1 85//1 86//1 88//1
f 85//4 81//4 82//4 86//4
f 83//6 81//6 85//6 87//6
f 88//5 86//5 82//5 84//5
f 89//3 91//3 92//3 90//3
f 91//11 95//11 96//11 92//11
f 95//1 93//1 94//1 96//1
f 93//12 89//12 90//12 94//12
f 91//13 89//13 93//13 95//13
f 96//14 94//14 90//14 92//14
f 97//3 99//3 100//3 98//3
f 99//11 103//11 104//11 100//11
f 103//1 101//1 102//1 104//1
f 101//12 97//12 98//12 102//12
f 99//13 97//13 101//13 103//13
f 104//14 102//14 98//14 100//14
f 105//3 107//3 108//3 106//3
f 107//11 111//11 112//11 108//11
f 111//1 109//1 110//1 112//1
f 109//12 105//12 106//12 110//12
f 107//13 105//13 109//13 111//13
f 112//14 110//14 106//14 108//14
f 113//3 115//3 116//3 114//3
f 115//7 119//7 120//7 116//7
f 119//1 117//1 118//1 120//1
f 117//8 113//8 114//8 118//8
f 115//9 113//9 117//9 119//9
f 120//10 118//10 114//10 116//10
f 121//3 123//3 124//3 122//3
f 123//7 127//7 128//7 124//7
f 127//1 125//1 126//1 128//1
f 125//8 121//8 122//8 126//8
f 123//9 121//9 125//9 127//9
f 128//10 126//10 122//10 124//10
f 129//1 131//1 132//1 130//1
f 131//2 135//2 136//2 132//2
f 135//3 133//3 134//3 136//3
f 133//4 129//4 130//4 134//4
f 131//5 129//5 133//5 135//5
f 136//6 134//6 130//6 132//6
f 137//1 139//1 140//1 138//1
f 139//2 143//2 144//2 140//2
f 143//3 141//3 142//3 144//3
f 141//4 137//4 138//4 142//4
f 139//5 137//5 141//5 143//5
f 144//6 142//6 138//6 140//6
f 145//1 147//1 148//1 146//1
f 147//2 151//2 152//2 148//2
f 151//3 149//3 150//3 152//3
f 149//4 145//4 146//4 150//4
f 147//5 145//5 149//5 151//5
f 152//6 150//6 146//6 148//6
f 153//3 155//3 156//3 154//3
f 155//2 159//2 160//2 156//2
f 159//1 157//1 158//1 160//1
f 157//4 153//4 154//4 158//4
f 155//6 153//6 157//6 159//6
f 160//5 158//5 154//5 156//5
f 161//3 163//3 164//3 162//3
f 163//2 167//2 168//2 164//2
f 167//1 165//1 166//1 168//1
f 165//4 161//4 162//4 166//4
f 163//6 161//6 165//6 167//6
f 168//5 166//5 162//5 164//5
f 169//3 171//3 172//3 170//3
f 171//2 175//2 176//2 172//2
f 175//1 173//1 174//1 176//1
f 173//4 169//4 170//4 174//4
f 171//6 169//6 173//6 175//6
f 176//5 174//5 170//5 172//5
f 177//3 179//3 180//3 178//3
f 179//2 183//2 184//2 180//2
f 183//1 181//1 182//1 184//1
f 181//4 177//4 178//4 182//4
f 179//6 177//6 181//6 183//6
f 184//5 182//5 178//5 180//5
f 185//1 187//1 188//1 186//1
f 187//2 191//2 192//2 188//2
f 191//3 189//3 190//3 192//3
f 189//4 185//4 186//4 190//4
f 187//5 185//5 189//5 191//5
f 192//6 190//6 186//6 188//6
f 193//1 195//1 196//1 194//1
f 195//2 199//2 200//2 196//2
f 199//3 197//3 198//3 200//3
f 197//4 193//4 194//4 198//4
f 195//5 193//5 197//5 199//5
f 200//6 198//6 194//6 196//6
